version = 1
nColumns = 19
nRows = 22
inDegrees = yes
endheader 
time	r_ground_force_vx	r_ground_force_vy	r_ground_force_vz	r_ground_force_px	r_ground_force_py	r_ground_force_pz	l_ground_force_vx	l_ground_force_vy	l_ground_force_vz	l_ground_force_px	l_ground_force_py	l_ground_force_pz	r_ground_torque_x	r_ground_torque_y	r_ground_torque_z	l_ground_torque_x	l_ground_torque_y	l_ground_torque_z	
          0.25635883	          0.00000000	          0.00000000	          0.00000000	          0.00000000	          0.00000000	          0.00000000	        -23.77540369	        623.49099163	         21.66110585	          0.93835687	          0.00000000	         -0.05587631	          0.00000000	          0.00000000	          0.00000000	          0.00000000	         -2.37127375	          0.00000000	
          0.25715380	          0.00000000	          0.00000000	          0.00000000	          0.00000000	          0.00000000	          0.00000000	        -24.62724413	        680.36542497	        -27.65058658	          0.08720536	          0.00000000	          0.05632748	          0.00000000	          0.00000000	          0.00000000	          0.00000000	          2.81733359	          0.00000000	
          0.25966559	          0.00000000	          0.00000000	          0.00000000	          0.00000000	          0.00000000	          0.00000000	        -38.21489847	        865.14751667	        -39.56952034	          0.09492713	          0.00000000	          0.05780004	          0.00000000	          0.00000000	          0.00000000	          0.00000000	          5.87006429	          0.00000000	
          0.26148600	          0.00000000	          0.00000000	          0.00000000	          0.00000000	          0.00000000	          0.00000000	        -56.85800226	        995.51813958	        -43.14577821	          0.10003632	          0.00000000	          0.05849365	          0.00000000	          0.00000000	          0.00000000	          0.00000000	          8.81998807	          0.00000000	
          0.26228098	          0.00000000	          0.00000000	          0.00000000	          0.00000000	          0.00000000	          0.00000000	        -67.57139834	       1050.96495206	        -43.99847538	          0.10223668	          0.00000000	          0.05862594	          0.00000000	          0.00000000	          0.00000000	          0.00000000	         10.02066200	          0.00000000	
          0.26479277	          0.00000000	          0.00000000	          0.00000000	          0.00000000	          0.00000000	          0.00000000	        -95.16322247	       1202.22144499	        -42.50968778	          0.10771097	          0.00000000	          0.05844444	          0.00000000	          0.00000000	          0.00000000	          0.00000000	         13.06735444	          0.00000000	
          0.26661318	          0.00000000	          0.00000000	          0.00000000	          0.00000000	          0.00000000	          0.00000000	       -105.32031729	       1285.98369391	        -39.72080809	          0.11044403	          0.00000000	          0.05805117	          0.00000000	          0.00000000	          0.00000000	          0.00000000	         14.43209431	          0.00000000	
          0.26740815	          0.00000000	          0.00000000	          0.00000000	          0.00000000	          0.00000000	          0.00000000	       -109.02817300	       1318.59028922	        -38.64580447	          0.11155953	          0.00000000	          0.05787177	          0.00000000	          0.00000000	          0.00000000	          0.00000000	         14.91402865	          0.00000000	
          0.26991995	          0.00000000	          0.00000000	          0.00000000	          0.00000000	          0.00000000	          0.00000000	       -125.50469304	       1413.44608583	        -35.24783761	          0.11506101	          0.00000000	          0.05729459	          0.00000000	          0.00000000	          0.00000000	          0.00000000	         16.25404980	          0.00000000	
          0.27174036	          0.00000000	          0.00000000	          0.00000000	          0.00000000	          0.00000000	          0.00000000	       -139.70388519	       1475.73528274	        -32.53329709	          0.11745011	          0.00000000	          0.05686415	          0.00000000	          0.00000000	          0.00000000	          0.00000000	         17.06715327	          0.00000000	
          0.27253533	          0.00000000	          0.00000000	          0.00000000	          0.00000000	          0.00000000	          0.00000000	       -145.34757036	       1501.10815630	        -31.27650669	          0.11839959	          0.00000000	          0.05667169	          0.00000000	          0.00000000	          0.00000000	          0.00000000	         17.36379148	          0.00000000	
          0.27504712	          0.00000000	          0.00000000	          0.00000000	          0.00000000	          0.00000000	          0.00000000	       -158.37584082	       1574.58892150	        -28.06617589	          0.12111368	          0.00000000	          0.05607049	          0.00000000	          0.00000000	          0.00000000	          0.00000000	         18.00914284	          0.00000000	
          0.27686753	          0.00000000	          0.00000000	          0.00000000	          0.00000000	          0.00000000	          0.00000000	       -163.92466238	       1621.82522016	        -26.39740911	          0.12287969	          0.00000000	          0.05565762	          0.00000000	          0.00000000	          0.00000000	          0.00000000	         18.25621983	          0.00000000	
          0.27766251	          0.00000000	          0.00000000	          0.00000000	          0.00000000	          0.00000000	          0.00000000	       -165.52698901	       1640.93716901	        -25.81477528	          0.12361526	          0.00000000	          0.05548554	          0.00000000	          0.00000000	          0.00000000	          0.00000000	         18.32032617	          0.00000000	
          0.28017430	          0.00000000	          0.00000000	          0.00000000	          0.00000000	          0.00000000	          0.00000000	       -167.14946106	       1693.34488981	        -24.44857951	          0.12582819	          0.00000000	          0.05497259	          0.00000000	          0.00000000	          0.00000000	          0.00000000	         18.32349510	          0.00000000	
          0.28199471	          0.00000000	          0.00000000	          0.00000000	          0.00000000	          0.00000000	          0.00000000	       -165.89905054	       1723.94079275	        -23.82061816	          0.12737387	          0.00000000	          0.05463118	          0.00000000	          0.00000000	          0.00000000	          0.00000000	         18.17019508	          0.00000000	
          0.28278968	          0.00000000	          0.00000000	          0.00000000	          0.00000000	          0.00000000	          0.00000000	       -164.89804889	       1735.44102290	        -23.63389453	          0.12804490	          0.00000000	          0.05449002	          0.00000000	          0.00000000	          0.00000000	          0.00000000	         18.06962788	          0.00000000	
          0.28530148	          0.00000000	          0.00000000	          0.00000000	          0.00000000	          0.00000000	          0.00000000	       -160.11619700	       1764.05487052	        -23.46121148	          0.13018743	          0.00000000	          0.05407093	          0.00000000	          0.00000000	          0.00000000	          0.00000000	         17.60594457	          0.00000000	
          0.28712189	          0.00000000	          0.00000000	          0.00000000	          0.00000000	          0.00000000	          0.00000000	       -155.73447456	       1778.25947108	        -23.59109058	          0.13177865	          0.00000000	          0.05379137	          0.00000000	          0.00000000	          0.00000000	          0.00000000	         17.16652917	          0.00000000	
          0.28791686	          0.00000000	          0.00000000	          0.00000000	          0.00000000	          0.00000000	          0.00000000	       -153.69841861	       1782.95895288	        -23.66992419	          0.13248636	          0.00000000	          0.05367540	          0.00000000	          0.00000000	          0.00000000	          0.00000000	         16.95732354	          0.00000000	
          0.29042865	          0.00000000	          0.00000000	          0.00000000	          0.00000000	          0.00000000	          0.00000000	       -146.68363237	       1791.89773610	        -23.94106998	          0.13477082	          0.00000000	          0.05333125	          0.00000000	          0.00000000	          0.00000000	          0.00000000	         16.23376182	          0.00000000	
          0.29224906	          0.00000000	          0.00000000	          0.00000000	          0.00000000	          0.00000000	          0.00000000	       -141.32663775	       1793.61981545	        -24.16921124	          0.13647395	          0.00000000	          0.05310185	          0.00000000	          0.00000000	          0.00000000	          0.00000000	         15.66532958	          0.00000000	
